<svg transform="scale(2)" version="1.1" id="uWwJFW5uCt" xmlns="http://www.w3.org/2000/svg" xmlns:xlink="http://www.w3.org/1999/xlink" x="0px" y="0px" viewBox="0 0 500 500" xml:space="preserve" class="pbimage_pbimage__wrapper__image__0LEis false"><title>Coffee</title><style type="text/css"> .st0{fill:#231F20;} .st1{fill:#FFFFFF;} .st2{fill:#D1D3D4;} .st3{fill:#68E1FD;}
 .st3{fill:#4c939e;}
 .st2{fill:#D1D3D4;}
 .st1{fill:#FFFFFF;}
 .st0{fill:#231F20;}</style><g id="Coaster_Bowl"><ellipse class="st0" cx="232" cy="301.8" rx="173.4" ry="100.1" fill="#231F20"></ellipse><path class="st0" d="M232,402.5c-96,0-174-45.2-174-100.8S136.1,201,232,201s174,45.2,174,100.7S328,402.5,232,402.5z M232,202.3
		c-95.3,0-172.8,44.6-172.8,99.5s77.5,99.5,172.8,99.5s172.8-44.6,172.8-99.5S327.3,202.3,232,202.3L232,202.3z" fill="#231F20"></path><ellipse class="st1" cx="232" cy="299" rx="173.4" ry="100.1" fill="#FFFFFF"></ellipse><path class="st0" d="M232,399.9c-96,0-174.2-45.3-174.2-100.9S136,198.1,232,198.1S406.2,243.3,406.2,299S328.1,399.9,232,399.9z
		 M232,199.6c-95.2,0-172.6,44.6-172.6,99.4s77.5,99.3,172.6,99.3s172.7-44.6,172.7-99.3S327.2,199.6,232,199.6z" fill="#231F20"></path><path class="st2" d="M232,386.4c-83.2,0-151-39.2-151-87.4s67.7-87.4,151-87.4s151,39.2,151,87.5S315.3,386.4,232,386.4z
		 M232,212.8c-82.6,0-149.7,38.7-149.7,86.2s67.2,86.2,149.7,86.2s149.7-38.6,149.7-86.2S314.6,212.8,232,212.8z" fill="#D1D3D4"></path></g><g id="Cup"><path class="st0" d="M150.2,265.3c0,0-25.4,3.5-47-8.7s-26.1-28.2-22.6-37.8s21.2-16.4,37.8-8s1.6-16.9-18.8-15.7
		s-41.6,9.2-40.6,22.1s9.9,34.8,26.5,45.3c16.7,10.6,41.1,18.3,54.5,16.7s22.3,0,19.3-6.6s-9.9-9.2-9.9-9.2"></path><path class="st0" d="M136.4,280c-13.7,0-35.5-7.1-51.1-17c-18-11.4-26-34.2-26.9-45.9c-0.2-3.5,1.1-7,3.5-9.5
		c6.2-7.1,21.1-12.3,37.8-13.3c13-0.7,23.8,8.8,26.2,14.4c0.9,2.1,0.4,3.2-0.1,3.8c-1.2,1.1-3.7,0.7-7.5-1.2
		c-8.6-4.3-18.2-5-26.4-1.8c-5.2,2.1-9.1,5.5-10.5,9.4c-3.7,10.1,1.8,25.4,22.3,37c21.2,12,46.3,8.7,46.6,8.6c0.4,0,0.7,0.3,0.7,0.7
		c0,0.3-0.2,0.6-0.5,0.7c-0.3,0-25.8,3.4-47.4-8.8c-21.2-12-26.7-28-22.9-38.6c1.6-4.2,5.7-8,11.3-10.2c8.6-3.4,18.6-2.7,27.5,1.8
		c3.6,1.8,5.4,1.9,6,1.4c0.4-0.3,0.3-1.2-0.2-2.2c-2.2-5.1-12.7-14.3-24.8-13.6c-16.4,0.9-30.8,6-36.8,12.8
		c-2.2,2.3-3.3,5.4-3.2,8.5c0.9,12.3,9.6,34.3,26.2,44.8c16.9,10.8,41.1,18.1,54,16.6c3.4-0.4,6.4-0.6,9.1-0.8
		c5.1-0.4,9.1-0.6,10-2.1c0.4-0.6,0.2-1.5-0.3-2.7c-2.9-6.2-9.4-8.8-9.5-8.8c-0.3-0.1-0.5-0.5-0.4-0.9c0.1-0.3,0.5-0.5,0.9-0.4
		c0.3,0.1,7.1,2.8,10.2,9.5c0.8,1.7,0.9,3,0.3,4c-1.2,2.1-5.1,2.4-11.1,2.8c-2.7,0.2-5.7,0.4-9,0.8C138.9,280,137.6,280,136.4,280z"></path><path class="st3" d="M133.1,230.5c0,0-7.8-20.7-15.5-32.4S92.2,179.5,77.6,184s-30.5,27.5-20,51s33.4,40.6,62.8,44.8
		c26.2,3.8,40.6-0.5,40.6-0.5l-4.2-7.3c0,0-16.9,5-45.6-4.9c-27.7-9.6-35.5-23.3-35.9-42.1s18.4-24.2,27.2-23.5
		c14.3,1.2,22.6,18.8,27.7,29.1L133.1,230.5z"></path><path class="st0" d="M141.1,282c-6.9,0-13.9-0.5-20.8-1.5c-28.7-4.1-52.3-21-63.2-45.2c-4.6-10.2-4.6-22,0.1-32.2
		c4.3-9.5,12.3-17.2,20.3-19.7c14.3-4.4,32.5,2.1,40.7,14.4c7.7,11.7,15.5,32.3,15.6,32.6c0.1,0.2,0,0.4-0.1,0.6
		c-0.1,0.2-0.3,0.3-0.5,0.3l-2.8,0.2c-0.3,0-0.5-0.1-0.6-0.3l-0.6-1.2c-5.2-10.5-13.2-26.5-26.6-27.6c-4.7-0.4-14.1,1.2-20.3,7.1
		c-4.3,4.1-6.4,9.4-6.2,15.7c0.4,15.3,4.9,30.9,35.5,41.5c28.1,9.8,45,5,45.2,4.9c0.3-0.1,0.6,0,0.7,0.3l4.2,7.3
		c0.1,0.2,0.1,0.4,0,0.5c-0.1,0.2-0.2,0.3-0.4,0.4C161.1,280,154,282,141.1,282z M87,183.2c-3.1,0-6.2,0.4-9.2,1.3
		c-7.7,2.4-15.3,9.8-19.5,19c-4.6,9.9-4.6,21.2-0.1,31.1c10.7,23.8,34,40.4,62.3,44.5c22.4,3.2,36.3,0.5,39.6-0.3l-3.6-6.1
		c-3,0.7-19.6,3.9-45.5-5.1c-25.3-8.7-35.8-21.1-36.3-42.6c-0.2-6.8,2.1-12.4,6.6-16.7c6.2-5.8,15.3-8,21.3-7.5
		c14.1,1.2,22.2,17.5,27.6,28.3l0.4,0.8l1.6-0.1c-1.5-3.9-8.4-21.2-15.1-31.5C110.9,189.1,98.7,183.2,87,183.2z"></path><path class="st0" d="M348.3,197c0,7.6-3.8,21.9-10.5,38.7c-8.2,20.6-21,45-36.7,65.2C283.5,313.3,261,322,236.5,322
		s-47-8.7-64.7-21.1c-15.7-20.2-28.5-44.6-36.7-65.2c-6.7-16.8-10.5-31.1-10.5-38.7c0-27.7,50.1-50.1,111.8-50.1
		S348.3,169.3,348.3,197z"></path><path class="st0" d="M236.4,322.6c-22.5,0-45.6-7.5-65-21.2c-0.1,0-0.1-0.1-0.1-0.1c-19.1-24.5-31.2-51.5-36.8-65.4
		c-6.6-16.5-10.5-31-10.5-38.9c0-28,50.4-50.8,112.5-50.8S348.9,169,348.9,197c0,7.9-3.9,22.5-10.5,38.9
		c-5.6,13.9-17.7,40.9-36.8,65.4l-0.1,0.1C282.1,315,259,322.6,236.4,322.6z M172.2,300.4c19.2,13.5,42,20.9,64.2,20.9
		s45-7.4,64.2-20.9c18.9-24.4,31-51.2,36.6-65c6.5-16.3,10.4-30.7,10.4-38.5c0-27.3-49.9-49.5-111.2-49.5S125.2,169.6,125.2,197
		c0,7.8,3.9,22.1,10.4,38.5C141.2,249.2,153.3,276,172.2,300.4z M301.1,300.9L301.1,300.9z"></path><path class="st3" d="M373.7,159.8c0,9.3-4.6,26.9-12.8,47.5c-10.1,25.3-25.8,55.2-45.1,80.1c-21.6,15.2-49.3,25.9-79.4,25.9
		s-57.7-10.6-79.4-25.9c-19.3-24.8-34.9-54.8-45.1-80.1c-8.2-20.6-12.8-38.2-12.8-47.5c0-34,61.4-61.6,137.3-61.6
		S373.7,125.8,373.7,159.8z"></path><path class="st0" d="M236.4,313.8c-27.6,0-55.9-9.2-79.7-26c-0.1,0-0.1-0.1-0.1-0.1c-23.4-30.1-38.3-63.2-45.2-80.2
		c-8.1-20.2-12.9-38-12.9-47.7c0-34.3,61.9-62.2,137.9-62.2s137.9,27.9,137.9,62.2c0,9.7-4.8,27.5-12.9,47.7
		c-6.8,17-21.8,50.1-45.1,80.2c0,0.1-0.1,0.1-0.1,0.1C292.4,304.6,264.1,313.8,236.4,313.8z M157.5,286.9
		c23.6,16.6,51.6,25.7,78.9,25.7s55.4-9.1,78.9-25.7c23.3-30,38.1-62.9,44.9-79.9c8-20.1,12.8-37.7,12.8-47.2
		c0-33.6-61.3-60.9-136.7-60.9S99.8,126.2,99.8,159.8c0,9.5,4.8,27.2,12.8,47.2C119.4,224,134.2,256.9,157.5,286.9z M315.8,287.3
		L315.8,287.3z"></path><ellipse class="st1" cx="236.4" cy="159.8" rx="137.3" ry="61.5"></ellipse><path class="st0" d="M236.4,222.1c-76.1,0-138-27.9-138-62.3s61.9-62.3,138-62.3s138,28,138,62.3S312.6,222.1,236.4,222.1z
		 M236.4,99c-75.3,0-136.5,27.3-136.5,60.8s61.2,60.8,136.5,60.8S373,193.3,373,159.8S311.7,99,236.4,99L236.4,99z"></path><path class="st2" d="M362.3,159.8c0,5.5-2,10.8-5.6,15.9c-15.9,21.8-63.7,37.6-120.2,37.6s-104.3-15.8-120.2-37.6
		c-3.7-5-5.6-10.3-5.6-15.9c0-29.5,56.3-53.5,125.8-53.5S362.3,130.2,362.3,159.8z"></path><path class="st0" d="M236.4,213.9c-55.7,0-104.2-15.2-120.7-37.9c-3.8-5.2-5.8-10.7-5.8-16.2c0-29.8,56.7-54.1,126.4-54.1
		s126.5,24.3,126.5,54.1c0,5.5-1.9,11-5.8,16.2C340.6,198.6,292.1,213.9,236.4,213.9z M236.4,106.9c-69,0-125.2,23.7-125.2,52.8
		c0,5.3,1.9,10.5,5.5,15.5c16.3,22.3,64.4,37.3,119.7,37.3s103.4-15,119.7-37.3c3.6-5,5.5-10.2,5.5-15.5
		C361.6,130.6,305.5,106.9,236.4,106.9z"></path><path class="st0" d="M356.6,175.6c-15.9,21.8-63.7,37.6-120.2,37.6s-104.3-15.8-120.2-37.6C132.2,153.9,180,138,236.4,138
		S340.7,153.9,356.6,175.6z"></path><path class="st0" d="M236.4,213.9c-55.7,0-104.2-15.2-120.7-37.9c-0.2-0.2-0.2-0.6,0-0.8c16.5-22.7,65-37.9,120.7-37.9
		s104.2,15.2,120.7,37.9c0.2,0.2,0.2,0.6,0,0.8C340.6,198.7,292.1,213.9,236.4,213.9z M117.1,175.6c16.6,22.1,64.4,36.9,119.3,36.9
		s102.8-14.8,119.3-36.9c-16.6-22.1-64.4-36.9-119.4-36.9S133.7,153.5,117.1,175.6z"></path></g><g id="Tea_Spoon"><path class="st1" d="M443.4,206.6c-2.6-2.9-6.9-3.9-10.7-3.3s-7.6,2.5-11,4.7c-9.9,6.5-17.4,15.2-25.2,23.9s-15.4,17.4-23,26.2
		c-16,18.4-21.6,33-31.6,40.3s-21.4,3.9-42.8,13.9s-34.9,18.7-27.4,35.1c8.3,18.3,32.7,17.1,50.3,10.1c17.9-7.1,28.5-19.8,30-29.5
		s-3.5-14.4,0.2-23.4c1.4-3.4,11-22.6,46.5-50.5l3.6-2.8c9.8-7.7,19.5-15.4,29.2-23.3c5.5-4.5,19.5-12.6,12.3-21.1L443.4,206.6z"></path><path class="st0" d="M298.6,363c-12,0-22.8-4.3-27.8-15.3c-8-17.7,7.9-26.8,27.9-36.1c8.3-3.8,17.1-6.5,26.2-8
		c6.5-1.2,11.7-2.2,16.5-5.8c5.4-3.9,9.5-10,14.7-17.7c5.1-7.8,10.7-15.3,16.8-22.5l3-3.5c6.5-7.5,13.2-15.2,19.9-22.7l1.5-1.7
		c7.2-8,14.6-16.2,23.9-22.4c2.9-1.9,6.9-4.2,11.3-4.9s8.8,0.8,11.4,3.6l0,0l0.3,0.3c1.6,1.7,2.4,4,2.1,6.3
		c-0.6,5.4-7,10.2-11.7,13.7c-1.1,0.8-2,1.5-2.9,2.2c-10,8.2-19.9,16.1-29.2,23.3l-3.6,2.8c-36.7,28.8-45.4,48.1-46.2,50.2
		c-2,4.8-1.4,8.3-0.7,12.3c0.8,3.6,1,7.3,0.5,10.9c-2,13.1-17.2,24.8-30.5,30.1C314.6,361.2,306.7,362.9,298.6,363z M434.6,203.9
		c-0.6,0-1.3,0-1.9,0.1c-4.1,0.6-7.9,2.8-10.7,4.6c-9.1,6-16.2,13.8-23.6,22.1l-1.5,1.7c-6.7,7.5-13.4,15.2-19.9,22.7l-3,3.5
		c-6,7.1-11.6,14.5-16.7,22.3c-5.3,7.8-9.5,14-15.1,18.1c-5.1,3.7-10.4,4.7-17.1,6c-9,1.5-17.7,4.2-25.9,8
		c-23.4,10.8-33.9,19.1-27.1,34.1c7.7,17.1,31,17,49.3,9.7s28.2-20.2,29.6-28.9c0.5-3.5,0.3-7-0.5-10.4c-0.7-4-1.4-7.9,0.8-13.1
		c0.9-2.1,9.7-21.8,46.7-50.8l3.6-2.8c9.2-7.3,19.2-15.1,29.2-23.3c0.8-0.7,1.8-1.4,2.9-2.2c4.5-3.3,10.6-7.9,11.1-12.6
		c0.2-1.9-0.5-3.8-1.8-5.1l-0.2-0.3l0,0C440.6,205,437.7,203.8,434.6,203.9L434.6,203.9z"></path><path class="st2" d="M343.9,314.3c-1.1-1-46.5,36.8-70.2,30.5c0,0-2.7,7.9,18.5,11.7s40.8-8.8,48.8-16.7S351.2,321.2,343.9,314.3z"></path></g><g id="Coffee_Beans"><path class="st2" d="M209.7,313.9c-3.6,9.5-14.2,19.1-28.7,16.7c-27.3-4.6-29.8-27.9-26.2-37.4s16.9-8,32.1-2.2
		S213.3,304.4,209.7,313.9z"></path><path class="st0" d="M185.6,331.5c-1.6,0-3.2-0.1-4.7-0.4c-14.1-2.4-20.9-9.6-24.1-15.3c-4.7-8.1-4.6-17.6-2.6-23
		c1.8-4.7,5.9-7.1,12.2-7.2c5.3-0.1,12.3,1.5,20.6,4.6c18.4,7,26.4,15.2,23.2,23.8C206.9,323,197.9,331.5,185.6,331.5z M166.8,286.9
		h-0.4c-5.8,0.1-9.6,2.3-11.2,6.5c-1.9,5.1-2,14.1,2.5,22s12.5,12.9,23.3,14.7c14.1,2.4,24.4-6.8,28.1-16.3
		c3.8-9.9-10.1-17.6-22.5-22.2C178.6,288.4,172,286.9,166.8,286.9z"></path><path class="st1" d="M209.7,313.9c-3.6,9.5-21.3,8.8-36.4,3.1s-22.1-14.3-18.5-23.8s17.4-9.8,32.5-4.1S213.3,304.4,209.7,313.9z"></path><path class="st0" d="M194.1,321.9c-7.2-0.2-14.4-1.6-21.1-4.2c-7.7-2.9-13.3-6.5-16.6-10.7c-3.3-3.9-4.2-9.3-2.4-14.1
		c1.8-4.8,6.1-7.6,12.6-8.2c5.8-0.6,13,0.7,20.9,3.7c17.3,6.6,26.3,16.7,22.9,25.8C208.3,319.6,201.9,321.9,194.1,321.9z M169.3,286
		c-0.9,0-1.8,0-2.6,0.1c-4,0.4-9.3,2-11.3,7.3c-1.7,4.3-0.9,9.1,2.1,12.6c3.1,3.9,8.6,7.5,16,10.3c14.6,5.5,32,6.5,35.5-2.6
		c2.4-6.3-2-16.3-22-23.9C181.4,287.5,175.4,286.2,169.3,286z"></path><path class="st0" d="M156.2,290.4c0,0,9.1,5.1,11.4,7.6s4,3.1,6.6,4.6s12.7,5,15.9,7.6s3.1,3.5,7.6,4c3.5,0.5,7,1.2,10.5,2.3
		c0.8-1.1,1.4-2.3,1.9-3.5c0,0-7.1,0.8-8.6-1.1c-1.4-1.9-3.4-3.1-5.7-3.6c-2.3-0.3-5.1-1.2-6.6-2.9s-5.1-4.9-9.3-5.1
		s-5.4-2.5-8.4-4.9s-4.5-2-6.8-3.6c-2.2-1.3-4.5-2.5-6.8-3.5C157.9,288.2,157,289.3,156.2,290.4z"></path><path class="st0" d="M208.3,317h-0.2c-3.4-1-6.8-1.8-10.3-2.2c-3.6-0.4-4.5-1.1-6.1-2.6c-0.5-0.4-1-0.9-1.8-1.5
		c-2-1.6-6.7-3.5-10.5-5.1c-1.8-0.7-3.6-1.5-5.4-2.4c-0.6-0.3-1.1-0.6-1.6-0.9c-2-1-3.7-2.3-5.2-3.9c-2.2-2.3-11.2-7.4-11.2-7.4
		c-0.2-0.1-0.3-0.2-0.3-0.4c0-0.2,0-0.3,0.1-0.5c0.8-1.1,1.7-2.2,1.7-2.2c0.2-0.2,0.5-0.3,0.7-0.2c2.4,1.1,4.7,2.3,6.9,3.6
		c0.8,0.5,1.6,0.9,2.5,1.2c1.6,0.5,3.1,1.3,4.3,2.4c0.7,0.6,1.3,1.1,1.8,1.7c1.8,1.8,3.2,3,6.2,3.1c4.6,0.2,8.3,3.8,9.7,5.3
		c1.7,1.6,3.9,2.6,6.3,2.8c2.4,0.4,4.6,1.8,6.1,3.8c1,1.2,5.5,1.1,8.1,0.9c0.3,0,0.6,0.2,0.6,0.5c0,0.1,0,0.1,0,0.2
		c-0.5,1.3-1.1,2.6-1.9,3.7C208.7,316.9,208.5,317,208.3,317z M157.1,290.2c2.1,1.2,9,5.2,11,7.4c1.4,1.5,3.1,2.7,4.9,3.6l1.6,0.9
		c1.7,0.9,3.4,1.7,5.2,2.3c3.9,1.6,8.7,3.6,10.8,5.3c0.8,0.6,1.3,1.1,1.8,1.6c1.6,1.4,2.2,2,5.4,2.3c3.4,0.5,6.8,1.2,10.1,2.2
		c0.5-0.7,0.9-1.4,1.2-2.1c-2.1,0.1-6.8,0.3-8.2-1.4c-1.3-1.8-3.2-3-5.3-3.3c-1.1-0.1-4.9-0.8-7-3.1c-1.3-1.4-4.8-4.8-8.9-4.9
		c-3.4-0.1-5.1-1.7-6.9-3.5c-0.5-0.5-1.1-1.1-1.8-1.6c-1.2-1-2.5-1.8-4-2.2c-1-0.3-1.9-0.8-2.8-1.3c-2-1.2-4.1-2.3-6.3-3.3
		C157.9,289.2,157.5,289.7,157.1,290.2z"></path><path class="st2" d="M156.2,311.7c1.1,8.7-3.1,20.4-15.2,24.4c-22.8,7.5-34.2-9.3-35.3-18s9.7-13,23.7-14.7S155.1,303,156.2,311.7z
		"></path><path class="st0" d="M130.1,338.5c-4.8,0.1-9.5-1.3-13.6-3.8c-6.9-4.3-10.7-11.6-11.3-16.5c-0.5-4.3,1.6-7.8,6.5-10.5
		c4-2.2,10-3.8,17.7-4.8c16.9-2.1,26.4,0.9,27.4,8.8c1.2,9.2-3.2,20.9-15.6,25C137.5,337.8,133.8,338.5,130.1,338.5z M138.9,303.2
		c-3.2,0-6.3,0.2-9.5,0.7c-7.6,1-13.4,2.5-17.3,4.7c-4.4,2.4-6.4,5.6-5.9,9.5c0.6,4.7,4.2,11.6,10.8,15.8s14.8,4.8,23.8,1.8
		c11.8-3.9,16-15.1,14.9-23.9C154.8,305.1,147.3,303.2,138.9,303.2z"></path><path class="st1" d="M156.2,311.7c1.1,8.7-12.7,15.4-26.7,17.1s-22.7-2-23.8-10.8s9.3-14.6,23.2-16.3S155.1,303,156.2,311.7z"></path><path class="st0" d="M123.2,330c-3.7,0.1-7.3-0.5-10.7-1.9c-4.1-1.7-7-5.5-7.5-9.9c-0.6-4.4,1.6-8.4,6.3-11.5
		c4.2-2.8,10.3-4.8,17.6-5.7c16-2,27,2.1,28.1,10.6c0.6,4.4-2.2,8.5-8.1,11.9c-5,2.9-12,5.1-19.3,6C127.5,329.8,125.3,330,123.2,330
		z M136.7,302c-2.6,0-5.1,0.2-7.7,0.5c-7,0.9-12.9,2.8-16.9,5.4c-2.9,1.9-6.3,5.2-5.7,10c0.4,3.9,3,7.3,6.7,8.7
		c3.9,1.8,9.6,2.2,16.3,1.4c7.1-0.9,13.9-3,18.7-5.8c3.7-2.2,7.9-5.7,7.3-10.4S149.4,302,136.7,302z"></path><path class="st0" d="M105.7,315.4c0,0,9,0.2,11.8,1.2s4.3,0.7,7,0.9s11.7-1.4,15.3-0.6s3.8,1.5,7.4,0c2.9-1.1,5.9-1.9,8.9-2.5
		c0.1-1.1,0.1-2.3,0-3.4c0,0-5.1,3.5-7,2.7c-1.8-0.9-3.9-1-5.8-0.4c-2,0.8-4.2,1-6.3,0.5c-1.9-0.7-5.9-1.7-9.2-0.1s-5.1,0.3-8.4-0.4
		s-4.2,0.3-6.7,0c-2.2-0.1-4.4-0.1-6.7,0C106.2,312.9,105.8,314.2,105.7,315.4z"></path><path class="st0" d="M143.9,318.1c-0.8,0-1.5-0.2-2.3-0.4c-0.5-0.1-1.2-0.3-2-0.5c-2.2-0.4-6.6,0-10.1,0.3
		c-1.7,0.2-3.4,0.3-5.1,0.3h-1.6c-1.9,0.1-3.8-0.2-5.6-0.8c-2.7-0.9-11.6-1.1-11.7-1.1c-0.1,0-0.3-0.1-0.4-0.2
		c-0.1-0.1-0.1-0.3-0.1-0.4c0.2-1.1,0.4-2.3,0.4-2.4c0-0.2,0.2-0.4,0.5-0.4c2.2-0.1,4.5-0.1,6.7,0c0.8,0.1,1.6,0,2.4-0.1
		c1.4-0.3,2.9-0.2,4.3,0.1c0.8,0.2,1.4,0.4,2.1,0.5c2.1,0.6,3.7,1,6-0.1c3.6-1.7,7.9-0.5,9.6,0.1c2,0.5,4.1,0.4,5.9-0.5
		c2-0.7,4.3-0.5,6.2,0.4c1.2,0.5,4.7-1.3,6.6-2.6c0.1-0.1,0.3-0.1,0.5-0.1c0.2,0.1,0.3,0.2,0.3,0.4c0.2,1.2,0.2,2.4,0,3.6
		c0,0.2-0.2,0.4-0.4,0.4c-3,0.6-6,1.4-8.8,2.5C146.3,317.8,145.1,318,143.9,318.1z M137.2,316c0.9,0,1.8,0.1,2.7,0.2
		c0.8,0.2,1.5,0.3,2,0.5c1.8,0.5,2.5,0.6,5.1-0.4c2.8-1,5.7-1.9,8.6-2.5c0.1-0.7,0.1-1.4,0.1-2.1c-1.5,1-5.1,3-6.8,2.3
		c-1.7-0.8-3.6-1-5.4-0.4c-0.9,0.3-4.1,1.4-6.6,0.5c-1.6-0.6-5.6-1.7-8.8-0.2c-2.7,1.3-4.6,0.8-6.7,0.2c-0.6-0.2-1.3-0.4-2-0.5
		c-1.3-0.3-2.6-0.3-3.9-0.1c-0.9,0.2-1.8,0.2-2.7,0.1c-2.1-0.1-4.1-0.1-6.2,0c-0.1,0.3-0.2,0.8-0.2,1.4c2.1,0.1,9,0.3,11.4,1.2
		c1.7,0.6,3.5,0.8,5.2,0.8h1.6c1.7,0,3.3-0.1,5-0.3C132,316.3,134.9,316,137.2,316z"></path><path class="st2" d="M194.4,334c1.3,10.6-3.8,24.8-18.5,29.7c-27.7,9.1-41.6-11.3-42.9-22s11.9-15.8,28.8-17.9S193,323.4,194.4,334
		z"></path><path class="st0" d="M162.6,366.6c-5.9,0.1-11.6-1.5-16.6-4.6c-8.4-5.3-13-14.1-13.8-20.1c-1.2-9.8,8.6-16,29.4-18.6
		s32.1,1.1,33.3,10.7l0,0c1.4,11.2-3.9,25.4-19,30.4C171.7,365.8,167.1,366.6,162.6,366.6z M173.3,323.6c-3.9,0-7.7,0.3-11.5,0.8
		c-13.7,1.7-29.7,6.1-28.3,17.2c0.7,5.7,5.2,14.2,13.2,19.2s18,5.8,28.9,2.2c14.4-4.7,19.4-18.4,18.1-29l0,0
		C192.7,326,183.6,323.6,173.3,323.6L173.3,323.6z"></path><path class="st1" d="M194.4,334c1.3,10.6-15.5,18.7-32.5,20.8s-27.7-2.5-29-13.1s11.3-17.7,28.3-19.9S193,323.4,194.4,334z"></path><path class="st0" d="M154.3,356.1c-13,0-21-5-22.1-14.3c-1.3-10.4,9.8-18.3,28.9-20.7c19.4-2.4,32.7,2.6,34,12.8l0,0
		c0.7,5.3-2.7,10.2-9.7,14.3c-6,3.5-14.6,6.2-23.4,7.3C159.4,355.9,156.9,356.1,154.3,356.1z M170.6,322c-3.1,0-6.2,0.2-9.3,0.6
		c-18,2.3-28.8,9.7-27.6,19c1.3,10,11.5,14.5,28.2,12.4c8.6-1.1,16.9-3.7,22.8-7.1c4.5-2.6,9.7-7,9-12.9
		C192.9,328.1,186.3,322,170.6,322z"></path><path class="st0" d="M132.9,338.4c0,0,11,0.2,14.4,1.4s5.3,0.9,8.5,1s14.2-1.6,18.6-0.8s4.6,1.8,9,0c3.5-1.3,7.2-2.3,10.9-3
		c0.2-1.4,0.2-2.8,0-4.2c0,0-6.2,4.2-8.6,3.2c-2.2-1.1-4.7-1.2-7.1-0.5c-2.3,0.9-5.4,1.4-7.6,0.5s-7.2-2.1-11.2-0.2
		s-6.3,0.4-10.2-0.5s-5.2,0.3-8.1,0c-2.7-0.2-5.4-0.2-8.1,0C133.4,335.5,133.1,337,132.9,338.4z"></path><path class="st0" d="M179.5,341.7c-0.9,0-1.9-0.2-2.8-0.5c-0.7-0.2-1.4-0.4-2.4-0.6c-2.6-0.5-8,0-12.3,0.4
		c-2.1,0.2-4.1,0.4-6.2,0.4c-0.7,0-1.3,0-1.9,0c-2.3,0.1-4.6-0.3-6.8-1c-3.2-1.1-14.1-1.4-14.2-1.4c-0.2,0-0.3-0.1-0.5-0.2
		c-0.1-0.1-0.2-0.3-0.1-0.5c0.2-1.4,0.5-2.9,0.5-2.9c0.1-0.3,0.3-0.5,0.6-0.5c2.7-0.2,5.5-0.2,8.2,0c1,0.1,2,0,2.9-0.1
		c1.7-0.3,3.5-0.3,5.2,0.1c0.9,0.2,1.8,0.4,2.5,0.6c2.6,0.7,4.4,1.3,7.3-0.1c4.3-2.1,9.6-0.6,11.6,0.1c2.4,0.6,4.9,0.4,7.2-0.5
		c2.5-0.8,5.2-0.6,7.5,0.5c1.5,0.6,5.7-1.6,8-3.2c0.3-0.2,0.7-0.1,0.9,0.2c0,0.1,0.1,0.1,0.1,0.2c0.2,1.5,0.2,3,0,4.4
		c0,0.3-0.2,0.5-0.5,0.5c-3.7,0.7-7.3,1.7-10.8,3C182.3,341.4,180.9,341.7,179.5,341.7z M171.2,339.2c1.1,0,2.2,0.1,3.3,0.2
		c1,0.2,1.8,0.4,2.5,0.6c2.2,0.6,3,0.8,6.2-0.5c3.4-1.3,6.9-2.3,10.5-3c0.1-0.9,0.1-1.7,0.1-2.6c-1.9,1.2-6.2,3.6-8.3,2.8
		c-2.1-1-4.4-1.2-6.6-0.5c-1.1,0.4-5,1.7-8.1,0.5c-1.9-0.7-6.8-2.1-10.7-0.2c-3.3,1.6-5.5,0.9-8.2,0.2c-0.8-0.2-1.6-0.4-2.4-0.6
		c-1.6-0.4-3.2-0.4-4.8-0.1c-1.1,0.2-2.2,0.2-3.2,0.1c-2.5-0.2-5-0.2-7.5,0c-0.1,0.4-0.2,1-0.3,1.7c2.5,0.1,10.9,0.4,13.9,1.4
		c2.1,0.7,4.2,1.1,6.4,1c0.6,0,1.2,0,1.9,0.1c1.2,0,3.4-0.2,6-0.4C164.9,339.6,168.4,339.2,171.2,339.2z"></path><path class="st2" d="M260.6,342c-0.1,10.7-7.1,24.1-22.4,26.9c-28.7,5.3-39.7-16.8-39.6-27.5s13.9-14,31-13.9
		S260.7,331.3,260.6,342z"></path><path class="st0" d="M229.9,370.4c-10,0-16.7-3.7-20.9-7.1c-7.6-6.4-11-15.8-10.9-21.8c0.1-9.8,10.7-14.7,31.6-14.5
		c9.4,0.1,16.9,1.2,22.2,3.3c6.3,2.5,9.5,6.5,9.4,11.8c-0.1,11.2-7.3,24.7-22.9,27.6C235.6,370.1,232.7,370.4,229.9,370.4z
		 M228.6,328.2c-13.6,0-29.2,2.4-29.3,13.3c-0.1,5.8,3.2,14.7,10.5,20.8s17.1,8.2,28.4,6.1c14.8-2.8,21.8-15.6,21.8-26.4
		c0-4.7-2.9-8.3-8.6-10.6c-5.1-2.1-12.4-3.1-21.7-3.2L228.6,328.2z"></path><path class="st1" d="M260.6,342c-0.1,10.7-17.9,16.5-35,16.3s-27.1-6.1-27-16.9s13.6-16,30.7-15.9S260.7,331.3,260.6,342z"></path><path class="st0" d="M226.3,359.1h-0.7c-8.7-0.1-15.5-1.6-20.3-4.6c-4.7-2.6-7.5-7.6-7.4-13c0.1-10.4,12.1-16.8,31.5-16.6
		c8.8,0.1,16.8,1.6,22.4,4.3c6.3,3.1,9.6,7.5,9.6,12.9C261.3,353.2,243.4,359.1,226.3,359.1z M228.6,326.3
		c-17.7,0-29.1,5.9-29.2,15.1c-0.1,5,2.2,9,6.7,11.8s11.1,4.3,19.6,4.4c16.5,0.1,34.1-5.2,34.2-15.6c0-6-4.7-9.6-8.8-11.5
		c-5.4-2.6-13.1-4.1-21.8-4.2L228.6,326.3z"></path><path class="st0" d="M199.2,338.2c0,0,10.9,1.7,14.1,3.3s5.1,1.6,8.3,2.2s14.4,0.3,18.5,1.7s4.4,2.4,9,1.2
		c3.7-0.8,7.4-1.3,11.2-1.6c0.4-1.4,0.6-2.7,0.6-4.1c0,0-6.7,3.3-8.9,2.1c-2.1-1.4-4.6-1.9-7-1.4c-4.8,1.1-9.3-2-14.3-2.4
		c-7.5-0.6-15.3-0.9-22.5-2.6c-2.6-0.5-5.3-0.8-8-1C200.1,335.5,199.5,336.9,199.2,338.2z"></path><path class="st0" d="M245.7,347.8c-1.2,0-2.5-0.4-3.6-0.9c-0.6-0.2-1.4-0.5-2.3-0.9c-2.5-0.9-7.9-1.1-12.2-1.2
		c-2.1,0-4.1-0.2-6.2-0.4l-1.9-0.3c-2.3-0.2-4.5-0.9-6.6-1.9c-3.1-1.5-13.8-3.3-13.9-3.3c-0.2,0-0.3-0.1-0.4-0.3
		c-0.1-0.1-0.1-0.3-0.1-0.5c0.4-1.4,0.9-2.8,0.9-2.8c0.1-0.3,0.3-0.4,0.6-0.4c2.7,0.2,5.4,0.5,8.1,1c5.9,1.4,12.3,1.9,18.4,2.3
		c1.3,0.1,2.6,0.2,3.9,0.3c2,0.2,4,0.7,5.9,1.4c2.8,0.9,5.4,1.7,8.2,1.1c2.6-0.5,5.2,0.1,7.4,1.5c1.4,0.8,5.8-0.9,8.3-2.1
		c0.2-0.1,0.4-0.1,0.6,0c0.2,0.1,0.3,0.3,0.3,0.5c0,1.5-0.2,3-0.6,4.4c-0.1,0.3-0.3,0.4-0.6,0.5c-3.7,0.2-7.4,0.8-11.1,1.5
		C248,347.6,246.9,347.7,245.7,347.8z M200,337.7c2.5,0.4,10.8,1.9,13.6,3.3c1.9,1,4,1.6,6.2,1.8c0.6,0.1,1.2,0.2,1.9,0.3
		c2,0.2,4,0.4,6,0.4c4.4,0.2,9.9,0.4,12.6,1.3c1,0.3,1.7,0.6,2.4,0.9c2.1,0.9,2.9,1.2,6.2,0.3c3.6-0.8,7.2-1.3,10.8-1.5
		c0.2-0.8,0.4-1.7,0.4-2.6c-2,0.9-6.6,2.8-8.6,1.6c-1.9-1.3-4.2-1.8-6.5-1.4c-3.1,0.7-6-0.2-8.8-1.1c-1.8-0.6-3.7-1.1-5.7-1.3
		l-3.9-0.3c-6.2-0.5-12.6-0.9-18.6-2.3c-2.5-0.5-4.9-0.8-7.4-1C200.4,336.5,200.1,337.1,200,337.7z"></path></g></svg>