<svg xmlns="http://www.w3.org/2000/svg" version="1.1" xmlns:xlink="http://www.w3.org/1999/xlink" width="3000" height="800" preserveAspectRatio="none" viewBox="0 0 3000 800"><g mask="url(&quot;#SvgjsMask1033&quot;)" fill="none"><path d="M3150 800L0 800 L0 545.6Q61.69 457.29, 150 518.98Q299.7 418.68, 400 568.38Q436.54 454.92, 550 491.47Q583.68 375.15, 700 408.83Q847.87 306.69, 950 454.56Q1049.55 404.11, 1100 503.65Q1209.58 363.23, 1350 472.8Q1409.88 382.68, 1500 442.55Q1649.78 342.33, 1750 492.1Q1785.25 377.35, 1900 412.6Q2051.42 314.02, 2150 465.44Q2281.95 347.38, 2400 479.33Q2487.24 316.57, 2650 403.81Q2833.32 337.13, 2900 520.45Q3013.55 384, 3150 497.56z" fill="rgba(75, 146, 157, 1)"></path><path d="M3150 800L0 800 L0 570.49Q64.56 485.05, 150 549.61Q340.77 490.38, 400 681.15Q493.84 624.99, 550 718.83Q595.69 614.52, 700 660.2Q774.15 484.35, 950 558.5Q1064.84 423.34, 1200 538.18Q1396.46 484.64, 1450 681.11Q1516.43 497.54, 1700 563.96Q1854.89 468.85, 1950 623.74Q2064.34 488.08, 2200 602.41Q2291.34 443.75, 2450 535.09Q2596.49 431.58, 2700 578.07Q2790.93 519.01, 2850 609.94Q2936.39 546.33, 3000 632.72Q3027.22 509.93, 3150 537.15z" fill="rgba(163, 211, 216, 1)"></path><path d="M3050 800L0 800 L0 691.64Q80.12 621.76, 150 701.88Q345.98 647.86, 400 843.83Q485.41 679.24, 650 764.65Q804.19 668.84, 900 823.02Q964.26 637.28, 1150 701.54Q1283.08 584.62, 1400 717.7Q1482.88 650.59, 1550 733.47Q1659.09 692.56, 1700 801.64Q1751.25 702.89, 1850 754.14Q1959.47 613.61, 2100 723.08Q2203.59 676.67, 2250 780.27Q2404.56 684.83, 2500 839.38Q2503.37 692.75, 2650 696.12Q2768.11 564.23, 2900 682.33Q3045.56 677.89, 3050 823.45z" fill="rgba(240, 249, 250, 1)"></path></g><defs><mask id="SvgjsMask1033"><rect width="3000" height="800" fill="#ffffff"></rect></mask></defs></svg>