<svg xmlns="http://www.w3.org/2000/svg" version="1.1" xmlns:xlink="http://www.w3.org/1999/xlink" width="3000" height="700" preserveAspectRatio="none" viewBox="0 0 3000 700"><g mask="url(&quot;#SvgjsMask1297&quot;)" fill="none"><path d="M3050 700L0 700 L0 368.92Q134.91 353.83, 150 488.73Q208.19 296.92, 400 355.1Q500.17 305.27, 550 405.44Q713.57 319.01, 800 482.58Q919.5 352.07, 1050 471.57Q1140.13 311.7, 1300 401.83Q1403.29 355.12, 1450 458.4Q1553.25 311.64, 1700 414.89Q1815.49 280.38, 1950 395.87Q2002.84 298.71, 2100 351.54Q2207.63 309.17, 2250 416.79Q2349.43 366.22, 2400 465.64Q2516.47 332.12, 2650 448.59Q2706.87 355.46, 2800 412.33Q2970.43 332.76, 3050 503.2z" fill="rgba(75, 146, 157, 1)"></path><path d="M3200 700L0 700 L0 535Q58.99 443.99, 150 502.98Q272.14 475.12, 300 597.26Q381.8 529.06, 450 610.85Q479.88 490.74, 600 520.62Q686.16 456.78, 750 542.94Q917.33 460.27, 1000 627.6Q1101.24 478.84, 1250 580.08Q1343.28 423.36, 1500 516.63Q1596.87 463.5, 1650 560.36Q1734.07 494.42, 1800 578.49Q1880.85 509.34, 1950 590.19Q1980.23 470.42, 2100 500.65Q2167.09 417.74, 2250 484.83Q2358.5 443.33, 2400 551.83Q2556.19 458.02, 2650 614.21Q2703.32 517.53, 2800 570.84Q2827.57 448.41, 2950 475.98Q3107.17 383.15, 3200 540.32z" fill="rgba(163, 211, 216, 1)"></path><path d="M3050 700L0 700 L0 735.34Q58.83 644.17, 150 703Q194.86 597.86, 300 642.72Q464.08 556.8, 550 720.87Q611.31 532.18, 800 593.5Q906.15 549.65, 950 655.8Q1052.27 608.07, 1100 710.34Q1211.77 572.11, 1350 683.88Q1442.49 526.38, 1600 618.87Q1727.43 596.31, 1750 723.74Q1819.18 642.92, 1900 712.1Q1962.75 624.85, 2050 687.6Q2165.67 553.27, 2300 668.94Q2454.05 572.99, 2550 727.03Q2663.06 590.09, 2800 703.15Q2890.89 544.05, 3050 634.94z" fill="rgba(235, 245, 246, 1)"></path></g><defs><mask id="SvgjsMask1297"><rect width="3000" height="700" fill="#ffffff"></rect></mask></defs></svg>