<svg xmlns="http://www.w3.org/2000/svg" version="1.1" xmlns:xlink="http://www.w3.org/1999/xlink"  width="3000" height="700" preserveAspectRatio="none" viewBox="0 0 3000 700"><g mask="url(&quot;#SvgjsMask1000&quot;)" fill="none"><path d="M 0,177 C 100,141.6 300,-5.8 500,0 C 700,5.8 800,183 1000,206 C 1200,229 1300,131.8 1500,115 C 1700,98.2 1800,123.8 2000,122 C 2200,120.2 2300,94.6 2500,106 C 2700,117.4 2900,164.4 3000,179L3000 700L0 700z" fill="rgba(75, 146, 157, 1)"></path><path d="M 0,367 C 85.8,361.8 257.4,339.4 429,341 C 600.6,342.6 686.4,390.4 858,375 C 1029.6,359.6 1115.4,252.6 1287,264 C 1458.6,275.4 1544.4,430.8 1716,432 C 1887.6,433.2 1973.4,270.4 2145,270 C 2316.6,269.6 2403,424 2574,430 C 2745,436 2914.8,326 3000,300L3000 700L0 700z" fill="rgba(163, 211, 216, 1)"></path><path d="M 0,577 C 100,579.4 300,594.4 500,589 C 700,583.6 800,532.6 1000,550 C 1200,567.4 1300,684 1500,676 C 1700,668 1800,519.6 2000,510 C 2200,500.4 2300,625.6 2500,628 C 2700,630.4 2900,543.2 3000,522L3000 700L0 700z" fill="rgba(235, 245, 246, 1)"></path></g><defs><mask id="SvgjsMask1000"><rect width="3000" height="700" fill="#ffffff"></rect></mask></defs></svg>